<?xml version="1.0" standalone="no"?>
<!DOCTYPE svg PUBLIC "-//W3C//DTD SVG 20010904//EN"
 "http://www.w3.org/TR/2001/REC-SVG-20010904/DTD/svg10.dtd">
<svg version="1.0" xmlns="http://www.w3.org/2000/svg"
 width="4880.000000pt" height="4880.000000pt" viewBox="0 0 4880.000000 4880.000000"
 preserveAspectRatio="xMidYMid meet">
<metadata>
Created by potrace 1.14, written by Peter Selinger 2001-2017
</metadata>
<g transform="translate(0.000000,4880.000000) scale(0.100000,-0.100000)"
fill="#000000" stroke="none">
<path d="M26729 34113 c-237 -247 -298 -493 -174 -709 16 -27 60 -80 98 -117
l70 -69 0 -141 c-1 -192 -12 -313 -44 -470 -88 -438 -313 -732 -633 -828 -254
-76 -599 41 -875 297 -187 173 -391 480 -514 771 -26 61 -32 85 -25 108 20 75
26 206 12 279 -24 133 -129 290 -261 387 -67 50 -181 111 -187 101 -3 -5 -14
-55 -26 -112 -25 -120 -26 -280 -3 -369 41 -156 162 -287 311 -336 45 -15 53
-22 73 -63 95 -201 158 -405 177 -572 30 -266 -36 -513 -178 -659 -175 -182
-424 -234 -690 -145 -257 86 -551 300 -826 603 -62 68 -112 127 -111 130 1 3
-8 33 -20 67 -34 90 -111 170 -215 223 -83 41 -231 85 -267 79 -18 -3 -18 -5
-4 -48 8 -25 23 -64 34 -87 10 -24 19 -45 19 -48 0 -3 18 -34 41 -70 74 -117
183 -198 287 -212 51 -6 83 -25 151 -88 99 -90 180 -192 256 -319 194 -325
347 -856 400 -1386 13 -136 18 -197 18 -227 0 -18 4 -33 9 -33 5 0 84 25 175
55 140 46 448 138 502 150 9 2 90 22 181 44 162 39 376 84 455 96 22 4 58 10
80 15 35 8 85 16 160 26 11 1 20 3 20 4 0 1 9 3 20 4 79 10 142 18 155 21 8 1
42 6 75 9 33 4 71 9 85 11 14 2 52 6 85 10 33 3 76 8 95 10 19 2 71 7 115 10
44 4 96 8 115 10 19 2 89 6 155 10 66 3 152 8 190 11 81 5 801 5 860 -1 22 -2
103 -6 180 -10 77 -4 156 -8 175 -10 19 -2 78 -6 130 -10 52 -3 102 -8 110
-10 8 -2 51 -7 95 -11 44 -3 87 -7 95 -9 8 -1 44 -6 80 -10 36 -3 76 -8 90
-10 14 -2 49 -7 79 -10 30 -4 61 -8 70 -10 9 -1 41 -6 71 -10 30 -4 64 -9 75
-11 11 -3 36 -6 55 -9 268 -31 966 -186 1312 -291 80 -24 150 -44 155 -44 5 0
9 8 9 18 1 21 14 148 19 182 2 14 9 63 15 110 14 106 46 292 65 385 9 39 17
79 19 90 14 72 65 252 106 375 107 322 235 553 390 710 91 91 147 125 220 133
84 10 169 57 237 131 75 82 153 241 165 336 3 24 0 25 -45 26 -116 2 -291 -47
-367 -103 -86 -63 -132 -149 -134 -248 -1 -76 -4 -80 -148 -230 -343 -358
-715 -558 -1039 -557 -148 0 -241 26 -325 90 -118 88 -183 179 -228 313 -13
42 -19 64 -31 134 -6 35 -7 231 -2 260 3 11 8 43 11 70 17 120 78 320 140 461
31 70 38 80 68 87 116 28 233 118 283 218 51 98 65 178 61 329 -2 74 -7 149
-10 165 -10 48 -36 149 -39 152 -6 5 -117 -56 -175 -96 -187 -128 -280 -295
-283 -506 -1 -76 6 -124 25 -189 12 -39 11 -46 -15 -96 -15 -30 -34 -69 -42
-85 -24 -51 -127 -215 -195 -310 -288 -400 -596 -639 -883 -683 -147 -22 -305
14 -469 108 -50 28 -150 117 -191 169 -19 23 -39 48 -44 55 -42 45 -146 258
-160 326 -2 8 -8 27 -13 41 -11 27 -47 196 -56 259 -15 98 -20 200 -21 346 l0
161 62 68 c185 201 190 446 13 711 -32 49 -76 108 -97 132 l-38 44 -56 -59z"/>
<path d="M26488 30044 c-2 -1 -59 -5 -128 -8 -69 -4 -145 -9 -170 -11 -25 -2
-76 -7 -115 -10 -38 -3 -88 -8 -110 -10 -22 -3 -62 -7 -90 -10 -27 -3 -66 -8
-85 -11 -19 -3 -51 -7 -70 -9 -47 -6 -180 -26 -205 -31 -11 -2 -33 -7 -50 -9
-35 -6 -138 -25 -175 -32 -148 -27 -457 -103 -640 -157 -154 -45 -340 -104
-365 -115 -11 -5 -42 -17 -70 -26 -221 -77 -540 -214 -805 -347 -262 -131
-331 -169 -653 -362 -44 -27 -424 -281 -468 -314 -20 -15 -68 -49 -105 -76
-38 -28 -71 -53 -74 -56 -3 -3 -23 -19 -45 -36 -22 -16 -45 -33 -51 -39 -6 -5
-30 -26 -55 -45 -70 -56 -166 -137 -279 -234 -118 -102 -536 -517 -620 -615
-30 -35 -62 -71 -71 -80 -108 -107 -504 -626 -650 -851 -117 -181 -154 -239
-231 -370 -47 -80 -105 -179 -127 -220 -61 -110 -271 -534 -310 -626 -18 -43
-42 -98 -52 -122 -67 -151 -191 -484 -244 -657 -20 -66 -40 -132 -45 -147 l-8
-26 853 0 c469 1 857 4 862 7 7 5 42 142 78 307 30 134 165 571 245 789 138
376 333 809 484 1073 20 35 36 68 36 73 0 5 5 9 10 9 6 0 10 5 10 12 0 16 152
262 268 433 380 561 842 1045 1372 1437 138 102 395 271 513 337 422 235 754
377 1202 514 123 38 484 120 620 142 102 16 246 35 307 40 37 3 75 8 86 10
130 25 898 25 1030 0 9 -1 44 -6 77 -9 33 -3 76 -8 95 -11 19 -3 55 -7 80 -10
25 -3 68 -10 95 -15 28 -5 68 -12 90 -15 99 -14 445 -89 600 -130 205 -54 268
-73 450 -133 77 -25 142 -47 145 -47 6 -2 12 -4 125 -47 44 -17 94 -36 110
-43 348 -149 600 -282 872 -462 65 -43 123 -81 128 -86 6 -4 35 -26 65 -48 30
-22 62 -46 70 -52 8 -7 44 -35 80 -62 485 -371 852 -828 1067 -1325 66 -153
151 -402 166 -490 3 -14 12 -52 20 -85 8 -33 18 -79 22 -102 7 -45 7 -45 80
-45 89 0 101 2 101 20 5 156 16 441 19 489 2 34 7 139 10 235 12 314 13 342
19 508 4 91 9 208 11 260 2 52 7 160 10 240 3 80 8 192 10 250 2 58 7 179 10
270 3 91 8 201 10 245 2 44 7 163 11 265 3 102 7 210 9 240 1 30 6 145 10 255
4 110 9 203 12 208 2 4 -34 7 -81 7 l-84 0 -8 -32 c-13 -63 -46 -154 -80 -224
-100 -209 -247 -271 -639 -267 -118 1 -247 13 -401 39 -56 9 -178 41 -489 128
-578 163 -670 188 -875 238 -113 28 -216 52 -230 55 -14 2 -65 13 -115 24 -93
21 -364 74 -425 84 -19 3 -57 10 -85 15 -27 5 -68 12 -90 15 -22 3 -65 10 -95
15 -30 5 -75 12 -100 15 -25 3 -94 12 -155 20 -60 8 -132 17 -160 20 -27 3
-66 8 -85 10 -19 2 -71 7 -115 10 -44 4 -91 8 -104 10 -13 2 -69 7 -125 10
-55 3 -130 8 -166 11 -69 5 -778 13 -782 8z"/>
<path d="M41088 30044 c-2 -1 -57 -5 -123 -8 -66 -4 -145 -9 -175 -12 -202
-17 -262 -23 -300 -28 -19 -3 -57 -8 -85 -11 -83 -10 -206 -28 -275 -40 -8 -1
-35 -6 -60 -10 -25 -4 -54 -9 -65 -11 -11 -3 -36 -7 -54 -10 -19 -3 -96 -19
-170 -36 -75 -16 -147 -31 -161 -34 -14 -3 -43 -10 -65 -16 -22 -6 -48 -13
-57 -15 -10 -1 -88 -23 -175 -47 -750 -213 -1460 -539 -2133 -981 -140 -93
-408 -280 -420 -294 -3 -3 -23 -19 -45 -35 -43 -32 -213 -167 -255 -202 -156
-132 -211 -181 -305 -269 -366 -341 -652 -658 -948 -1050 -4 -5 -24 -32 -45
-60 -45 -59 -104 -143 -220 -314 -264 -391 -553 -926 -729 -1351 -24 -58 -47
-114 -52 -125 -48 -105 -222 -606 -237 -681 l-4 -21 856 0 856 0 8 21 c5 11
21 75 35 141 15 66 47 192 72 280 24 88 45 167 47 175 61 234 259 763 407
1086 170 372 436 834 653 1131 61 84 218 289 244 318 15 17 47 55 72 85 149
180 458 492 630 635 25 21 47 40 50 44 3 3 57 47 120 97 737 581 1584 962
2475 1113 94 16 117 20 170 26 28 4 61 8 75 10 302 44 902 54 1200 20 19 -2
60 -7 90 -10 96 -11 133 -16 225 -30 50 -7 106 -16 125 -19 30 -5 318 -61 360
-70 877 -200 1569 -505 2180 -960 640 -477 1041 -996 1259 -1630 35 -101 74
-235 86 -296 2 -8 8 -33 13 -55 6 -22 15 -65 21 -95 l11 -55 85 0 85 0 1 30
c0 17 2 66 4 110 2 44 6 148 10 230 3 83 8 197 10 255 3 58 7 175 10 260 3 85
8 205 11 265 7 184 13 343 19 490 3 77 7 185 10 240 4 106 12 291 20 520 3 77
7 187 10 245 3 58 7 164 10 235 2 72 7 195 11 275 3 80 6 188 7 240 l2 95 -79
0 -78 0 -24 -83 c-65 -225 -153 -341 -294 -386 -122 -40 -161 -45 -350 -50
-136 -3 -282 9 -450 39 -19 3 -48 8 -65 11 -16 3 -43 9 -60 15 -36 11 -204 58
-231 64 -10 2 -181 49 -379 105 -295 83 -696 189 -773 205 -9 2 -60 13 -112
25 -92 20 -268 57 -320 67 -14 2 -56 10 -95 18 -38 8 -86 16 -105 19 -19 3
-46 8 -60 11 -14 3 -54 10 -90 15 -36 5 -76 12 -90 14 -41 7 -162 25 -210 31
-90 12 -107 14 -195 25 -116 14 -154 18 -245 25 -41 3 -88 7 -105 10 -16 2
-73 6 -125 10 -52 3 -131 8 -175 11 -80 6 -773 13 -777 8z"/>
<path d="M1239 29618 c-1 -2 -2 -40 -3 -85 -2 -82 -2 -83 24 -84 14 -1 36 -2
50 -4 14 -1 70 -6 125 -9 55 -4 111 -9 125 -11 14 -3 61 -7 105 -10 44 -3 91
-8 105 -10 14 -2 50 -6 80 -10 30 -3 66 -8 80 -10 14 -3 39 -7 56 -10 144 -23
462 -177 659 -318 234 -168 450 -386 567 -572 47 -75 46 -73 34 -305 -5 -80
-9 -167 -11 -195 -1 -27 -5 -102 -9 -165 -4 -63 -9 -155 -12 -205 -4 -87 -8
-159 -19 -350 -13 -231 -23 -425 -30 -560 -5 -104 -11 -214 -20 -350 -3 -44
-7 -134 -10 -200 -3 -66 -7 -149 -10 -185 -2 -36 -7 -114 -10 -175 -3 -60 -7
-141 -10 -180 -2 -38 -7 -124 -10 -190 -3 -66 -8 -151 -10 -190 -7 -116 -14
-244 -20 -365 -3 -63 -8 -144 -10 -180 -2 -36 -7 -120 -10 -186 l-6 -122 215
1 c213 0 216 0 217 21 2 24 3 51 13 251 4 77 9 172 11 210 19 356 31 592 40
784 3 62 7 143 10 180 2 36 7 127 10 201 4 74 8 162 10 195 2 33 6 121 10 195
3 74 8 164 10 200 2 36 7 126 10 200 3 74 8 164 10 200 2 36 6 121 10 190 3
69 7 159 10 200 4 69 16 302 19 378 0 18 6 32 13 32 7 0 16 0 20 1 4 0 17 -26
29 -58 21 -59 147 -389 189 -498 33 -85 103 -269 130 -340 12 -33 66 -175 119
-315 54 -140 141 -367 193 -505 53 -137 106 -277 118 -310 25 -65 93 -244 130
-340 93 -240 165 -432 165 -438 0 -4 9 -26 19 -50 10 -23 65 -164 122 -314
l102 -271 808 0 808 0 -30 82 c-17 44 -69 182 -116 306 -125 332 -133 353
-143 375 -5 11 -45 119 -90 240 -44 121 -85 229 -90 240 -6 11 -66 169 -134
350 -68 182 -177 470 -241 640 -65 171 -128 337 -140 370 -90 241 -338 897
-350 925 -13 33 -170 447 -477 1260 -71 190 -139 369 -151 398 l-21 52 -1693
0 c-931 0 -1694 -1 -1694 -2z"/>
<path d="M13722 29588 c-8 -26 -153 -410 -187 -493 -4 -11 -9 -24 -11 -30 -5
-18 -114 -300 -124 -320 -8 -18 -604 -1568 -722 -1880 -28 -71 -60 -157 -73
-190 -13 -33 -37 -96 -54 -140 -16 -44 -43 -114 -59 -155 -70 -178 -166 -430
-188 -490 -13 -36 -28 -74 -33 -85 -6 -11 -41 -103 -80 -205 -141 -371 -311
-815 -320 -835 -17 -35 -141 -367 -141 -375 0 -5 106 -8 234 -7 l235 1 22 60
c12 34 28 75 35 91 7 17 71 181 142 365 194 504 271 703 281 725 5 11 66 169
136 350 70 182 147 380 170 440 24 61 120 310 215 555 94 245 175 454 180 465
5 11 30 74 55 140 25 66 49 129 54 140 9 19 98 249 186 480 32 85 46 111 62
113 11 2 20 -3 20 -10 9 -232 14 -347 18 -408 5 -80 14 -291 20 -430 6 -137
15 -337 20 -445 3 -55 7 -152 10 -215 7 -164 14 -327 20 -460 3 -63 7 -160 10
-215 2 -55 7 -156 10 -225 5 -120 8 -179 20 -445 3 -66 8 -160 10 -210 2 -49
7 -157 10 -240 4 -82 8 -183 10 -224 3 -58 12 -256 18 -387 0 -9 198 -12 754
-12 l754 0 -6 126 c-3 70 -7 168 -10 217 -3 50 -7 149 -10 220 -3 72 -7 171
-10 220 -3 50 -7 149 -10 220 -3 72 -7 162 -10 200 -2 39 -7 142 -10 230 -4
88 -8 187 -10 220 -2 33 -7 125 -10 205 -3 80 -8 181 -10 225 -10 208 -15 310
-20 425 -6 134 -13 279 -20 400 -2 41 -7 152 -11 245 -3 94 -10 179 -14 190
-8 21 -7 80 4 170 3 28 8 100 11 160 16 307 57 539 115 664 75 159 260 350
490 506 117 78 218 123 330 144 85 16 107 20 230 36 63 9 125 18 138 20 13 2
53 7 90 11 37 3 74 8 82 9 8 2 20 4 25 4 9 1 10 38 6 149 l-1 22 -1535 0
-1534 0 -9 -32z"/>
<path d="M27830 21887 l0 -1327 158 0 157 0 -1 928 c0 510 2 933 4 940 3 9 7
10 11 3 4 -5 83 -89 176 -187 94 -97 192 -200 218 -228 27 -28 130 -136 230
-240 100 -104 202 -210 227 -236 237 -248 386 -404 440 -460 36 -37 138 -143
226 -236 89 -93 209 -218 268 -279 l105 -110 1 1318 0 1317 -158 0 -157 0 1
-922 c0 -508 -1 -926 -3 -930 -2 -5 -48 38 -101 93 -53 56 -122 128 -152 159
-62 64 -351 366 -430 450 -29 30 -109 114 -179 186 -69 72 -200 209 -291 304
-91 95 -190 199 -220 230 -140 146 -411 429 -467 488 l-63 66 0 -1327z"/>
<path d="M20370 23138 c-50 -111 -138 -306 -167 -368 -17 -36 -42 -91 -57
-122 -45 -99 -74 -163 -229 -498 -82 -179 -156 -340 -164 -358 -7 -18 -28 -63
-45 -100 -17 -37 -43 -94 -58 -127 -15 -33 -43 -94 -63 -135 -56 -121 -95
-208 -167 -365 -12 -27 -37 -82 -55 -120 -56 -121 -137 -298 -156 -342 l-18
-43 170 0 169 0 30 63 c16 34 81 175 144 312 l114 250 581 3 580 2 27 -57 c25
-57 46 -101 118 -258 20 -44 60 -132 89 -195 l53 -115 172 -3 c95 -1 172 1
172 6 0 4 -6 16 -13 27 -7 11 -23 44 -36 73 -12 29 -37 85 -56 125 -43 93 -96
208 -125 272 -12 28 -42 92 -66 144 -24 51 -44 95 -44 96 0 2 -21 47 -46 102
-67 143 -99 212 -122 263 -11 25 -37 81 -57 125 -20 44 -82 179 -137 300 -55
121 -115 252 -133 290 -49 104 -280 608 -340 743 -16 34 -31 62 -35 62 -4 0
-17 -24 -30 -52z m49 -680 c8 -18 22 -51 31 -73 10 -22 43 -98 75 -170 31 -71
63 -143 70 -160 7 -16 67 -153 133 -302 l120 -273 -448 0 -448 0 45 103 c25
56 53 120 63 142 10 22 51 115 90 205 39 91 76 171 82 178 6 6 8 12 5 12 -6 0
9 35 77 185 18 39 43 96 56 128 13 31 26 57 29 57 4 0 12 -15 20 -32z"/>
<path d="M17297 23144 c-1 -1 -45 -4 -97 -7 -52 -4 -104 -8 -115 -11 -11 -2
-40 -7 -65 -11 -137 -22 -367 -120 -510 -219 -103 -70 -264 -233 -332 -336
-84 -126 -169 -319 -192 -432 -2 -7 -6 -24 -9 -38 -15 -61 -19 -104 -23 -250
-5 -232 28 -389 123 -585 44 -92 48 -98 96 -173 60 -93 196 -233 298 -309 179
-131 358 -206 594 -250 88 -16 396 -7 467 13 10 3 30 7 45 10 55 9 210 65 283
102 l75 37 0 183 c0 100 -2 182 -5 182 -3 0 -37 -23 -75 -51 -92 -68 -248
-141 -360 -169 -131 -34 -326 -35 -452 -4 -190 47 -342 132 -473 264 -198 198
-301 451 -301 738 0 62 2 116 4 120 3 4 8 31 11 61 15 123 89 296 182 427 251
354 709 499 1129 358 96 -32 211 -92 281 -145 28 -21 53 -39 55 -39 3 0 4 81
4 181 l-1 181 -49 27 c-105 58 -266 111 -383 127 -54 7 -202 20 -205 18z"/>
<path d="M23525 23124 c-256 -50 -458 -206 -535 -411 -27 -74 -31 -95 -37
-204 -9 -168 44 -307 162 -424 103 -102 196 -157 455 -267 179 -75 315 -142
337 -164 8 -8 18 -14 22 -14 17 0 114 -107 136 -150 114 -226 12 -521 -220
-636 -118 -58 -273 -61 -400 -7 -60 25 -149 89 -183 131 -59 75 -105 193 -105
275 -1 32 -3 32 -99 11 -40 -8 -84 -18 -98 -20 -14 -2 -48 -9 -76 -15 l-51
-11 9 -52 c32 -177 134 -354 270 -471 98 -84 179 -126 317 -161 80 -21 111
-23 215 -20 66 2 135 7 151 11 72 15 207 67 256 97 76 46 75 45 160 129 77 77
133 163 170 259 18 47 22 63 37 140 14 72 7 292 -11 355 -47 159 -127 271
-267 375 -95 70 -194 119 -411 205 -268 106 -357 159 -415 250 -118 182 -4
414 240 486 202 60 413 -12 517 -178 11 -18 23 -33 27 -33 5 0 204 115 241
139 17 11 -7 54 -80 141 -79 95 -247 203 -349 224 -14 3 -36 8 -50 12 -50 13
-265 12 -335 -2z"/>
<path d="M32669 23136 c-2 -2 -30 -7 -61 -10 -221 -26 -512 -160 -681 -315
-369 -336 -515 -768 -427 -1256 21 -113 93 -301 157 -410 108 -184 311 -376
504 -477 115 -62 276 -116 419 -143 58 -11 331 -14 400 -5 63 9 73 11 135 25
150 34 303 100 444 192 100 66 266 227 335 326 54 77 146 251 146 276 0 9 4
21 9 27 14 13 59 188 70 269 14 105 11 309 -5 405 -30 169 -116 382 -208 515
-62 88 -81 111 -178 207 -172 170 -413 301 -638 347 -30 6 -66 14 -80 17 -30
7 -334 16 -341 10z m265 -300 c274 -29 546 -194 703 -427 150 -222 210 -517
158 -779 -40 -200 -132 -374 -272 -517 -146 -149 -323 -244 -533 -288 -92 -19
-287 -19 -383 1 -360 75 -653 336 -766 684 -72 225 -59 522 33 724 14 31 26
59 26 61 0 3 14 28 32 57 172 284 438 453 763 485 33 3 61 6 62 7 4 3 116 -2
177 -8z"/>
<path d="M25920 21825 l0 -1265 158 0 157 0 0 1265 0 1265 -157 0 -158 0 0
-1265z"/>
<path d="M38590 22945 c-141 -24 -309 -79 -380 -124 -14 -9 -36 -22 -50 -29
-73 -37 -212 -156 -289 -248 -211 -250 -298 -549 -267 -914 24 -284 127 -519
310 -708 133 -137 275 -229 451 -292 155 -54 231 -65 455 -64 153 0 190 4 292
28 114 26 235 69 328 116 73 38 80 47 80 108 l0 54 -32 -21 c-131 -86 -342
-164 -503 -187 -91 -12 -280 -11 -369 2 -165 24 -285 69 -418 157 -311 206
-472 531 -469 947 2 323 96 577 289 781 164 174 340 265 612 315 19 4 96 7
170 9 231 3 383 -36 600 -157 42 -23 84 -51 106 -71 26 -22 31 -16 32 45 0 46
-1 48 -54 84 -123 81 -284 141 -448 168 -109 17 -344 17 -446 1z"/>
<path d="M11762 22822 c-176 -417 -386 -912 -397 -937 -8 -16 -44 -102 -80
-190 -37 -88 -75 -178 -85 -200 -9 -22 -36 -85 -60 -140 -23 -55 -46 -109 -51
-120 -40 -92 -248 -585 -253 -601 -6 -19 -2 -21 44 -23 60 -2 38 -44 195 359
59 151 125 318 145 370 l38 95 522 0 522 0 15 -35 c8 -19 37 -96 65 -170 28
-74 59 -157 69 -185 11 -27 51 -136 91 -242 l71 -192 61 2 c34 1 60 7 59 12
-1 6 -68 172 -148 370 -80 198 -171 423 -202 500 -30 77 -61 154 -68 170 -14
33 -123 302 -306 755 -66 162 -124 304 -129 315 -5 11 -19 45 -31 75 -48 123
-40 122 -87 12z m83 -197 c21 -55 70 -183 110 -285 40 -102 107 -275 150 -385
43 -110 98 -249 121 -310 24 -60 44 -114 44 -120 0 -7 -152 -10 -487 -9 -269
1 -489 2 -490 3 -1 0 21 56 48 124 28 67 80 194 116 282 36 88 74 179 84 202
10 23 19 45 19 48 0 4 7 21 14 38 8 18 35 82 59 142 25 61 66 162 92 225 26
63 51 126 56 139 13 32 19 24 64 -94z"/>
<path d="M46953 22865 c-16 -27 -63 -106 -103 -175 -40 -69 -116 -197 -168
-285 -52 -88 -104 -175 -114 -194 -10 -18 -61 -103 -112 -190 -51 -86 -105
-177 -121 -203 -15 -27 -30 -48 -33 -48 -4 1 -63 98 -132 216 -147 254 -295
507 -321 549 -10 17 -23 39 -28 50 -6 11 -50 88 -99 170 l-88 150 -67 3 c-37
2 -67 0 -67 -3 0 -4 88 -151 196 -328 196 -322 209 -342 277 -449 20 -32 37
-60 37 -62 0 -3 32 -55 70 -116 39 -61 70 -115 70 -120 0 -6 5 -10 10 -10 6 0
10 -4 10 -10 0 -5 17 -36 37 -67 l37 -58 1 -537 0 -538 57 0 58 0 0 536 0 536
74 122 c133 220 322 529 406 666 45 74 91 151 102 170 28 49 127 210 150 243
13 19 15 27 6 28 -7 0 -36 1 -64 2 l-50 2 -31 -50z"/>
<path d="M5903 21760 l0 -1150 541 0 541 0 1 50 0 50 -485 2 -486 3 0 565 0
565 485 5 485 5 1 48 1 47 -482 0 c-377 0 -484 3 -487 13 -2 6 -4 199 -4 427
l1 415 486 3 485 2 0 50 -1 50 -541 0 -541 0 0 -1150z"/>
<path d="M8435 22860 l0 -50 331 0 331 0 -1 -1100 -1 -1100 58 0 57 0 1 38 c0
20 0 515 1 1100 l0 1062 329 0 329 0 0 50 0 50 -717 0 -718 0 0 -50z"/>
<path d="M41163 21760 l0 -1150 56 0 56 0 0 1150 0 1150 -56 0 -56 0 0 -1150z"/>
<path d="M42786 22888 c1 -13 3 -35 3 -50 l1 -28 329 0 329 0 1 -1057 c0 -582
0 -1077 0 -1100 l1 -43 58 0 57 0 -1 1100 -1 1100 329 0 c255 0 328 3 329 13
0 6 1 29 2 50 l2 37 -721 0 -721 0 3 -22z"/>
<path d="M2183 22858 c0 -7 -3 -31 -6 -53 -4 -22 -9 -60 -12 -85 -3 -25 -8
-56 -10 -70 -2 -14 -7 -52 -11 -85 -3 -33 -8 -67 -9 -75 -2 -8 -6 -44 -10 -80
-3 -36 -8 -72 -10 -80 -2 -8 -7 -40 -10 -70 -3 -30 -8 -66 -10 -80 -4 -26 -41
-311 -50 -390 -3 -25 -8 -56 -10 -70 -5 -32 -23 -170 -30 -235 -3 -27 -8 -61
-10 -75 -2 -14 -7 -50 -10 -80 -3 -30 -8 -66 -10 -80 -3 -14 -7 -45 -10 -70
-6 -48 -6 -51 -30 -235 -9 -66 -18 -136 -20 -155 -12 -93 -17 -136 -20 -151
-2 -12 5 -18 23 -21 44 -6 95 6 97 22 1 8 6 51 10 95 4 44 9 94 11 110 1 17 5
57 9 90 3 33 7 76 10 95 4 35 13 129 20 205 2 22 6 65 9 95 4 30 8 75 11 100
2 25 7 72 10 105 10 98 13 127 20 195 3 36 8 79 10 97 3 18 7 63 10 100 3 37
8 83 10 102 3 18 8 63 11 100 3 36 7 77 9 91 2 14 6 59 10 100 4 41 8 86 10
100 4 26 18 175 18 198 1 31 17 0 86 -166 41 -97 85 -199 97 -227 12 -27 34
-79 49 -115 15 -36 33 -78 40 -95 36 -83 251 -589 275 -646 15 -36 34 -81 43
-100 8 -19 34 -79 57 -134 23 -55 51 -119 61 -142 11 -23 19 -44 19 -47 0 -3
11 -29 24 -58 13 -29 45 -102 71 -163 26 -60 48 -111 50 -113 1 -1 28 57 60
130 32 73 108 248 170 388 62 140 154 350 205 465 50 116 100 228 110 250 59
129 80 177 80 181 0 3 10 26 21 52 62 137 82 182 154 347 79 182 91 206 92
183 0 -7 3 -47 7 -88 4 -41 9 -102 12 -135 3 -33 7 -71 9 -85 2 -14 7 -59 10
-101 3 -42 8 -86 10 -98 2 -12 6 -56 9 -99 4 -42 8 -93 11 -112 2 -19 7 -62
11 -95 3 -33 7 -76 9 -95 2 -19 6 -69 10 -110 3 -41 8 -86 10 -100 2 -14 6
-61 10 -105 3 -44 8 -91 10 -105 2 -14 6 -56 10 -95 3 -38 8 -86 10 -105 2
-19 6 -62 9 -95 4 -33 9 -80 11 -105 3 -25 8 -72 11 -105 3 -33 7 -73 9 -90 1
-16 3 -39 4 -50 1 -17 8 -20 54 -20 28 0 55 4 58 8 4 5 3 25 -1 46 -5 20 -11
63 -14 96 -3 33 -8 69 -10 80 -2 12 -7 52 -11 90 -3 38 -8 72 -10 75 -1 3 -6
37 -9 76 -4 39 -8 80 -10 90 -2 11 -7 46 -10 79 -4 33 -9 74 -11 90 -2 17 -6
50 -9 75 -3 25 -19 155 -36 290 -17 135 -33 263 -36 285 -5 42 -10 81 -20 154
-3 25 -7 63 -9 85 -2 23 -6 57 -9 76 -3 19 -8 58 -11 85 -3 28 -7 61 -10 75
-3 14 -7 50 -10 80 -10 94 -15 144 -20 170 -2 14 -7 52 -11 85 -3 33 -8 62 -9
63 -5 6 -92 -188 -718 -1598 -9 -19 -31 -69 -50 -110 -19 -41 -60 -135 -92
-207 -32 -73 -61 -133 -64 -133 -3 0 -18 29 -33 63 -15 34 -38 87 -51 117 -13
30 -57 132 -97 225 -73 172 -91 212 -129 297 -11 26 -21 50 -21 52 0 3 -14 35
-31 73 -43 95 -45 100 -159 368 -56 132 -112 263 -125 290 -12 28 -48 111 -80
185 -62 147 -66 157 -119 276 -20 45 -36 87 -36 93 0 15 -17 14 -17 -1z"/>
<path d="M2761 19335 c1 -11 -2 -65 -5 -120 -7 -117 -12 -213 -21 -385 -3 -69
-8 -154 -11 -190 -2 -36 -6 -112 -9 -170 -3 -58 -7 -136 -10 -175 -3 -38 -7
-122 -10 -185 -3 -63 -7 -151 -10 -195 -3 -44 -7 -120 -10 -170 -7 -123 -14
-231 -20 -285 -5 -56 -16 -173 -20 -220 -6 -64 -17 -175 -20 -190 -2 -8 -6
-44 -9 -80 -4 -36 -9 -76 -11 -90 -2 -14 -7 -45 -10 -70 -10 -78 -27 -183 -45
-275 -5 -27 -12 -61 -14 -75 -40 -228 -128 -461 -238 -630 -280 -433 -655
-625 -1278 -655 -30 -2 -58 -3 -61 -4 -4 -1 -5 -127 0 -153 0 -3 828 -6 1839
-5 l1837 2 0 80 0 80 -50 8 c-178 29 -388 81 -545 134 -354 119 -559 289 -706
582 -39 80 -115 287 -128 351 -34 169 -45 235 -51 290 -4 36 -8 72 -10 80 -19
98 -26 693 -11 930 3 63 9 156 11 205 6 123 15 305 20 390 5 79 14 273 20 397
2 46 6 135 10 198 12 237 15 288 20 415 3 72 8 145 10 163 3 17 2 33 -3 33 -4
1 -107 2 -229 3 -216 1 -222 0 -222 -19z"/>
<path d="M6910 19353 c0 -3 157 -420 167 -443 3 -8 7 -19 9 -25 4 -15 154
-407 164 -430 5 -11 46 -117 91 -235 152 -404 187 -496 414 -1090 229 -600
291 -765 350 -920 17 -47 125 -329 238 -627 114 -297 207 -546 207 -552 0 -30
20 -3 45 62 38 97 126 324 185 477 27 69 170 438 318 820 148 382 272 704 277
715 5 11 9 22 10 25 4 12 18 47 25 65 5 11 31 79 58 150 60 156 470 1215 517
1335 48 123 154 395 209 537 26 67 46 126 44 130 -2 4 -102 8 -224 8 l-221 1
-83 -216 c-45 -118 -102 -264 -125 -325 -24 -60 -68 -175 -98 -255 -31 -80
-76 -197 -100 -260 -25 -63 -77 -200 -117 -305 -40 -104 -78 -202 -85 -217 -7
-15 -16 -41 -20 -58 -4 -16 -10 -30 -15 -30 -5 0 -20 33 -35 73 -14 39 -31 83
-37 97 -8 21 -72 190 -183 485 -96 256 -248 656 -259 685 -8 19 -35 91 -61
160 -26 69 -51 134 -56 145 -10 20 -19 20 -809 20 -440 0 -800 -1 -800 -2z"/>
<path d="M14165 19350 c-4 -6 1 -152 10 -335 3 -60 8 -164 10 -230 3 -66 7
-160 10 -210 4 -90 9 -192 20 -440 3 -71 8 -170 10 -220 5 -101 15 -331 20
-445 2 -41 7 -147 11 -235 15 -288 9 -680 -11 -785 -3 -14 -7 -47 -11 -75 -3
-27 -7 -52 -9 -55 -2 -3 -6 -24 -9 -46 -15 -98 -79 -291 -132 -397 -159 -316
-476 -530 -939 -634 -86 -19 -91 -20 -255 -49 -14 -2 -54 -7 -90 -10 -36 -4
-67 -10 -70 -15 -5 -7 -5 -127 -1 -150 0 -4 1065 -7 2364 -7 l2364 -1 0 82 0
82 -71 1 c-72 1 -255 13 -285 19 -9 1 -43 6 -76 9 -171 19 -423 94 -560 166
-191 101 -301 217 -418 440 -115 220 -191 463 -226 720 -23 171 -24 185 -35
465 -3 72 -8 174 -11 227 -3 54 -8 147 -10 208 -2 60 -6 156 -9 212 -7 120
-14 273 -21 448 -3 69 -8 163 -10 208 -2 46 -7 141 -10 210 -6 127 -12 262
-20 422 -2 47 -7 148 -10 225 -6 125 -10 179 -14 195 -1 7 -1502 6 -1506 0z"/>
<path d="M19515 19352 c-3 -3 65 -173 127 -317 417 -968 1067 -1868 1854
-2571 540 -482 1271 -941 1964 -1234 80 -33 154 -65 165 -69 39 -17 161 -63
205 -77 25 -8 54 -19 65 -24 109 -50 587 -186 895 -254 129 -28 128 -28 295
-56 66 -12 131 -23 144 -25 13 -2 45 -7 70 -11 25 -3 57 -8 71 -10 14 -2 50
-7 80 -10 30 -3 66 -7 80 -9 97 -15 400 -40 615 -50 129 -7 738 -7 840 -1 39
3 122 7 185 11 63 3 133 8 155 10 22 2 74 7 115 10 71 6 94 8 190 20 22 3 57
7 78 10 95 12 201 26 222 30 13 3 42 7 65 10 34 5 307 58 355 69 338 78 630
171 925 296 190 80 622 299 830 420 88 51 171 99 185 107 14 8 37 22 52 31 15
9 55 35 90 56 376 235 593 385 1006 692 l257 191 0 277 c0 152 -3 277 -7 279
-3 1 -37 -27 -75 -63 -88 -83 -228 -209 -273 -246 -19 -16 -37 -31 -40 -35
-16 -19 -294 -236 -391 -305 -648 -462 -1213 -731 -2044 -974 -77 -23 -147
-43 -155 -45 -8 -2 -96 -24 -195 -48 -162 -41 -422 -99 -500 -111 -16 -3 -73
-12 -125 -21 -118 -20 -134 -22 -190 -30 -42 -5 -90 -12 -150 -20 -14 -2 -61
-7 -105 -11 -44 -3 -87 -8 -95 -9 -8 -2 -78 -6 -155 -11 -245 -14 -690 -8
-880 11 -22 3 -65 7 -95 10 -164 15 -226 23 -390 50 -226 37 -388 71 -510 105
-689 192 -1147 399 -1675 758 -298 202 -508 377 -789 657 -202 201 -293 300
-422 460 -26 33 -51 62 -54 65 -15 14 -195 258 -261 355 -120 175 -208 318
-339 550 -30 52 -230 452 -230 459 0 3 -14 36 -31 73 -43 93 -101 239 -170
423 l-58 155 -886 0 c-488 0 -888 -1 -890 -3z"/>
<path d="M34129 19349 c-7 -4 33 -121 71 -204 5 -11 43 -96 84 -190 82 -188
233 -488 316 -629 10 -17 31 -53 45 -80 15 -27 35 -61 45 -75 9 -14 43 -69 75
-121 124 -201 290 -435 459 -650 127 -161 104 -134 256 -310 353 -409 873
-870 1320 -1170 209 -140 368 -237 570 -348 25 -14 50 -28 55 -32 19 -15 409
-208 525 -260 316 -142 639 -261 970 -355 131 -38 366 -96 485 -121 27 -5 163
-33 195 -39 59 -12 248 -43 305 -50 17 -2 46 -6 65 -9 38 -6 87 -12 165 -21
28 -3 66 -8 85 -10 19 -2 67 -7 105 -10 39 -4 88 -8 110 -10 22 -2 85 -7 140
-10 55 -4 125 -8 155 -10 65 -5 781 -5 860 -1 30 2 111 7 180 11 69 4 141 8
160 10 19 2 69 6 110 10 117 9 246 24 355 41 55 8 120 17 145 20 25 3 63 9 85
14 22 5 63 12 90 16 28 3 53 8 56 10 3 2 21 6 40 9 19 3 41 8 49 10 8 2 31 7
50 10 44 8 235 53 275 65 17 6 93 28 170 51 585 171 1298 534 2070 1055 274
184 374 255 677 482 l197 147 1 283 c0 155 -2 282 -4 282 -2 0 -26 -21 -52
-46 -329 -311 -589 -520 -919 -741 -406 -271 -830 -489 -1276 -654 -332 -123
-792 -257 -1184 -345 -29 -6 -385 -73 -417 -78 -46 -7 -80 -12 -183 -26 -125
-17 -136 -18 -205 -25 -36 -3 -83 -8 -105 -10 -256 -25 -774 -24 -1045 1 -64
6 -150 15 -185 19 -16 2 -57 6 -90 10 -338 38 -798 145 -1145 267 -255 89
-616 250 -825 368 -214 120 -517 320 -665 437 -321 255 -506 428 -795 743
-167 183 -438 538 -571 748 -245 388 -418 721 -574 1102 -23 58 -46 114 -51
125 -15 34 -75 198 -89 243 -7 24 -18 46 -24 50 -13 8 -1754 10 -1767 1z"/>
</g>
</svg>
